<mxfile host="Electron" agent="Mozilla/5.0 (Macintosh; Intel Mac OS X 10_15_7) AppleWebKit/537.36 (KHTML, like Gecko) draw.io/26.0.9 Chrome/128.0.6613.186 Electron/32.2.5 Safari/537.36" version="26.0.9">
  <diagram name="Page-1" id="2zZ8BhhY4x-b--JPyof2">
    <mxGraphModel dx="1224" dy="793" grid="1" gridSize="10" guides="1" tooltips="1" connect="1" arrows="1" fold="1" page="1" pageScale="1" pageWidth="850" pageHeight="1100" math="0" shadow="0">
      <root>
        <mxCell id="0" />
        <mxCell id="1" parent="0" />
        <mxCell id="w5nZB-soIbPaTv8_3gk6-2" value="&lt;font style=&quot;font-size: 20px;&quot;&gt;Frontier&lt;/font&gt;" style="shape=process;whiteSpace=wrap;html=1;backgroundOutline=1;" vertex="1" parent="1">
          <mxGeometry x="50" y="300" width="220" height="100" as="geometry" />
        </mxCell>
        <mxCell id="w5nZB-soIbPaTv8_3gk6-3" value="File sytem" style="shape=cylinder3;whiteSpace=wrap;html=1;boundedLbl=1;backgroundOutline=1;size=15;" vertex="1" parent="1">
          <mxGeometry x="130" y="150" width="60" height="80" as="geometry" />
        </mxCell>
        <mxCell id="w5nZB-soIbPaTv8_3gk6-4" style="edgeStyle=orthogonalEdgeStyle;rounded=0;orthogonalLoop=1;jettySize=auto;html=1;entryX=0.5;entryY=1;entryDx=0;entryDy=0;entryPerimeter=0;" edge="1" parent="1" source="w5nZB-soIbPaTv8_3gk6-2" target="w5nZB-soIbPaTv8_3gk6-3">
          <mxGeometry relative="1" as="geometry" />
        </mxCell>
        <mxCell id="w5nZB-soIbPaTv8_3gk6-6" value="&lt;font style=&quot;font-size: 20px;&quot;&gt;Checkpointing&lt;/font&gt;" style="edgeLabel;html=1;align=center;verticalAlign=middle;resizable=0;points=[];" vertex="1" connectable="0" parent="w5nZB-soIbPaTv8_3gk6-4">
          <mxGeometry x="-0.1111" y="4" relative="1" as="geometry">
            <mxPoint as="offset" />
          </mxGeometry>
        </mxCell>
        <mxCell id="w5nZB-soIbPaTv8_3gk6-7" value="&lt;font style=&quot;font-size: 20px;&quot;&gt;Crawler&lt;/font&gt;" style="shape=process;whiteSpace=wrap;html=1;backgroundOutline=1;labelPosition=center;verticalLabelPosition=top;align=center;verticalAlign=bottom;" vertex="1" parent="1">
          <mxGeometry x="480" y="130" width="220" height="140" as="geometry" />
        </mxCell>
        <mxCell id="w5nZB-soIbPaTv8_3gk6-9" value="" style="endArrow=classic;startArrow=classic;html=1;rounded=0;exitX=1;exitY=0.5;exitDx=0;exitDy=0;entryX=0;entryY=0.5;entryDx=0;entryDy=0;" edge="1" parent="1" source="w5nZB-soIbPaTv8_3gk6-2" target="w5nZB-soIbPaTv8_3gk6-7">
          <mxGeometry width="50" height="50" relative="1" as="geometry">
            <mxPoint x="400" y="420" as="sourcePoint" />
            <mxPoint x="450" y="370" as="targetPoint" />
          </mxGeometry>
        </mxCell>
        <mxCell id="w5nZB-soIbPaTv8_3gk6-10" value="" style="endArrow=classic;startArrow=classic;html=1;rounded=0;exitX=1;exitY=0.5;exitDx=0;exitDy=0;entryX=0;entryY=0.5;entryDx=0;entryDy=0;" edge="1" parent="1" source="w5nZB-soIbPaTv8_3gk6-2">
          <mxGeometry width="50" height="50" relative="1" as="geometry">
            <mxPoint x="400" y="420" as="sourcePoint" />
            <mxPoint x="480" y="480" as="targetPoint" />
          </mxGeometry>
        </mxCell>
        <mxCell id="w5nZB-soIbPaTv8_3gk6-11" value="&lt;font style=&quot;font-size: 20px;&quot;&gt;Get and send back urls&lt;br&gt;through unix domain socket&lt;/font&gt;" style="text;html=1;align=center;verticalAlign=middle;resizable=0;points=[];autosize=1;strokeColor=none;fillColor=none;" vertex="1" parent="1">
          <mxGeometry x="300" y="320" width="270" height="60" as="geometry" />
        </mxCell>
        <mxCell id="w5nZB-soIbPaTv8_3gk6-12" value="&lt;font style=&quot;font-size: 20px;&quot;&gt;Crawler&lt;/font&gt;" style="shape=process;whiteSpace=wrap;html=1;backgroundOutline=1;labelPosition=center;verticalLabelPosition=top;align=center;verticalAlign=bottom;" vertex="1" parent="1">
          <mxGeometry x="480" y="430" width="220" height="140" as="geometry" />
        </mxCell>
        <mxCell id="w5nZB-soIbPaTv8_3gk6-14" value="HTML Parser" style="rounded=0;whiteSpace=wrap;html=1;" vertex="1" parent="1">
          <mxGeometry x="520" y="440" width="60" height="55" as="geometry" />
        </mxCell>
        <mxCell id="w5nZB-soIbPaTv8_3gk6-15" value="Bloom filter" style="rounded=0;whiteSpace=wrap;html=1;" vertex="1" parent="1">
          <mxGeometry x="100" y="370" width="120" height="30" as="geometry" />
        </mxCell>
        <mxCell id="w5nZB-soIbPaTv8_3gk6-16" value="HTML Parser" style="rounded=0;whiteSpace=wrap;html=1;" vertex="1" parent="1">
          <mxGeometry x="600" y="440" width="60" height="55" as="geometry" />
        </mxCell>
        <mxCell id="w5nZB-soIbPaTv8_3gk6-17" value="HTML Parser" style="rounded=0;whiteSpace=wrap;html=1;" vertex="1" parent="1">
          <mxGeometry x="520" y="500" width="60" height="55" as="geometry" />
        </mxCell>
        <mxCell id="w5nZB-soIbPaTv8_3gk6-18" value="HTML Parser" style="rounded=0;whiteSpace=wrap;html=1;" vertex="1" parent="1">
          <mxGeometry x="600" y="500" width="60" height="55" as="geometry" />
        </mxCell>
        <mxCell id="w5nZB-soIbPaTv8_3gk6-19" value="HTML Parser" style="rounded=0;whiteSpace=wrap;html=1;" vertex="1" parent="1">
          <mxGeometry x="520" y="140" width="60" height="55" as="geometry" />
        </mxCell>
        <mxCell id="w5nZB-soIbPaTv8_3gk6-20" value="HTML Parser" style="rounded=0;whiteSpace=wrap;html=1;" vertex="1" parent="1">
          <mxGeometry x="600" y="140" width="60" height="55" as="geometry" />
        </mxCell>
        <mxCell id="w5nZB-soIbPaTv8_3gk6-21" value="HTML Parser" style="rounded=0;whiteSpace=wrap;html=1;" vertex="1" parent="1">
          <mxGeometry x="600" y="200" width="60" height="55" as="geometry" />
        </mxCell>
        <mxCell id="w5nZB-soIbPaTv8_3gk6-22" value="HTML Parser" style="rounded=0;whiteSpace=wrap;html=1;" vertex="1" parent="1">
          <mxGeometry x="520" y="200" width="60" height="55" as="geometry" />
        </mxCell>
        <mxCell id="w5nZB-soIbPaTv8_3gk6-23" value="&lt;font style=&quot;font-size: 20px;&quot;&gt;File system&lt;/font&gt;" style="shape=cylinder3;whiteSpace=wrap;html=1;boundedLbl=1;backgroundOutline=1;size=15;" vertex="1" parent="1">
          <mxGeometry x="870" y="260" width="140" height="180" as="geometry" />
        </mxCell>
        <mxCell id="w5nZB-soIbPaTv8_3gk6-24" style="edgeStyle=orthogonalEdgeStyle;rounded=0;orthogonalLoop=1;jettySize=auto;html=1;entryX=0;entryY=0.5;entryDx=0;entryDy=0;entryPerimeter=0;" edge="1" parent="1" source="w5nZB-soIbPaTv8_3gk6-7" target="w5nZB-soIbPaTv8_3gk6-23">
          <mxGeometry relative="1" as="geometry" />
        </mxCell>
        <mxCell id="w5nZB-soIbPaTv8_3gk6-25" style="edgeStyle=orthogonalEdgeStyle;rounded=0;orthogonalLoop=1;jettySize=auto;html=1;entryX=0;entryY=0.5;entryDx=0;entryDy=0;entryPerimeter=0;" edge="1" parent="1" source="w5nZB-soIbPaTv8_3gk6-12" target="w5nZB-soIbPaTv8_3gk6-23">
          <mxGeometry relative="1" as="geometry" />
        </mxCell>
      </root>
    </mxGraphModel>
  </diagram>
</mxfile>
